<svg width="12px" height="10px" viewBox="0 0 12 10" version="1.1" xmlns="http://www.w3.org/2000/svg" xmlns:xlink="http://www.w3.org/1999/xlink">
    <g stroke="none" stroke-width="1" fill="none" fill-rule="evenodd">
        <g transform="translate(-29.000000, -3035.000000)" fill="#000000">
            <g transform="translate(29.000000, 3035.000000)">
                <path d="M1.15175342,2.95915068 C1.30356164,3.06624658 1.76112329,3.38441096 2.52452055,3.91339726 C3.28791781,4.44238356 3.87271233,4.84972603 4.2789863,5.13534247 C4.32361644,5.16665753 4.41846575,5.23471233 4.56353425,5.33958904 C4.70860274,5.44454795 4.82917808,5.52945205 4.92509589,5.59413699 C5.02109589,5.65882192 5.13715068,5.73139726 5.27334247,5.81169863 C5.40953425,5.892 5.53791781,5.95232877 5.65841096,5.99235616 C5.7789863,6.03263014 5.89060274,6.05260274 5.99326027,6.05260274 L6,6.05260274 L6.00673973,6.05260274 C6.10939726,6.05260274 6.2210137,6.03263014 6.34158904,5.99235616 C6.46208219,5.95232877 6.59054795,5.89191781 6.72665753,5.81169863 C6.86276712,5.73131507 6.97882192,5.65882192 7.07482192,5.59413699 C7.17082192,5.52945205 7.29131507,5.44454795 7.43638356,5.33958904 C7.58145205,5.23463014 7.67638356,5.16665753 7.7210137,5.13534247 C8.13164384,4.84964384 9.17638356,4.12421918 10.8549041,2.9589863 C11.1807945,2.73139726 11.4530137,2.45679452 11.6718082,2.13534247 C11.8906849,1.81405479 12,1.4769863 12,1.12430137 C12,0.829643836 11.8938904,0.57739726 11.6818356,0.367561644 C11.4697808,0.157726027 11.2186027,0.0528493151 10.9285479,0.0528493151 L1.07136986,0.0528493151 C0.727643836,0.0528493151 0.463150685,0.16890411 0.277890411,0.401013699 C0.092630137,0.633205479 0,0.923424658 0,1.27158904 C0,1.55284932 0.122794521,1.85761644 0.36830137,2.18572603 C0.613808219,2.51383562 0.875013699,2.77167123 1.15175342,2.95915068 Z M11.3303014,3.67561644 C9.86613699,4.66660274 8.75441096,5.43673973 7.99561644,5.98586301 C7.74115068,6.17334247 7.53468493,6.31964384 7.37613699,6.42443836 C7.21767123,6.52939726 7.00676712,6.63649315 6.74334247,6.74589041 C6.48,6.85528767 6.23449315,6.90994521 6.00682192,6.90994521 L6,6.90994521 L5.99326027,6.90994521 C5.76558904,6.90994521 5.52,6.85528767 5.25665753,6.74589041 C4.99331507,6.63649315 4.78232877,6.52939726 4.62386301,6.42443836 C4.46539726,6.31964384 4.25893151,6.17334247 4.00446575,5.98586301 C3.40175342,5.54391781 2.29241096,4.77378082 0.676356164,3.67561644 C0.421890411,3.50605479 0.196438356,3.31175342 0,3.0930411 L0,8.40986301 C0,8.70460274 0.104876712,8.95676712 0.314712329,9.16660274 C0.524547945,9.37652055 0.776794521,9.48139726 1.07145205,9.48139726 L10.9286301,9.48139726 C11.2232055,9.48139726 11.4754521,9.37652055 11.6852877,9.16660274 C11.8952055,8.95668493 12,8.70460274 12,8.40986301 L12,3.0930411 C11.808,3.30723288 11.5848493,3.50153425 11.3303014,3.67561644 Z"></path>
            </g>
        </g>
    </g>
</svg>