<svg width="8px" height="13px" viewBox="0 0 8 13" version="1.1" xmlns="http://www.w3.org/2000/svg" xmlns:xlink="http://www.w3.org/1999/xlink">
    <g stroke="none" stroke-width="1" fill="none" fill-rule="evenodd">
        <g transform="translate(-31.000000, -3093.000000)" fill="#000000">
            <g transform="translate(31.000000, 3093.475390)">
                <path d="M6.80885714,1.2047619 C6.03295238,0.428761905 5.09666667,0.0408571429 4,0.0408571429 C2.90333333,0.0408571429 1.96704762,0.428857143 1.19114286,1.2047619 C0.415238095,1.98066667 0.0272380952,2.91695238 0.0272380952,4.01361905 C0.0272380952,4.57752381 0.112571429,5.04047619 0.283238095,5.40257143 L3.11542857,11.408381 C3.19304762,11.5790476 3.31333333,11.7135238 3.47628571,11.8117143 C3.6392381,11.91 3.81380952,11.9592381 4.00009524,11.9592381 C4.18628571,11.9592381 4.36095238,11.91 4.52390476,11.8117143 C4.68685714,11.7135238 4.80961905,11.5790476 4.89238095,11.408381 L7.71666667,5.40257143 C7.88742857,5.04047619 7.9727619,4.57752381 7.9727619,4.01361905 C7.97285714,2.91695238 7.58485714,1.9807619 6.80885714,1.2047619 L6.80885714,1.2047619 Z M5.40438095,5.41809524 C5.01647619,5.806 4.54838095,6 4,6 C3.45161905,6 2.98352381,5.806 2.59552381,5.41809524 C2.20752381,5.03009524 2.01352381,4.562 2.01352381,4.01361905 C2.01352381,3.46533333 2.20752381,2.99714286 2.59552381,2.6092381 C2.98352381,2.2212381 3.45171429,2.0272381 4,2.0272381 C4.54838095,2.0272381 5.01647619,2.2212381 5.40438095,2.6092381 C5.79238095,2.99714286 5.98638095,3.46533333 5.98638095,4.01361905 C5.98638095,4.56190476 5.79238095,5.03 5.40438095,5.41809524 L5.40438095,5.41809524 Z"></path>
            </g>
        </g>
    </g>
</svg>