<svg width="7px" height="12px" viewBox="0 0 7 12" version="1.1" xmlns="http://www.w3.org/2000/svg" xmlns:xlink="http://www.w3.org/1999/xlink">
    <g stroke="none" stroke-width="1" fill="none" fill-rule="evenodd">
        <g transform="translate(-31.000000, -3077.000000)" fill="#000000">
            <g transform="translate(31.000000, 3077.000000)">
                <path d="M6.58317187,0.432359375 C6.35753125,0.2065 6.09010937,0.093734375 5.78123438,0.093734375 L1.21876563,0.093734375 C0.90978125,0.093734375 0.64246875,0.206609375 0.41671875,0.432359375 C0.19096875,0.658 0.07809375,0.925421875 0.07809375,1.23429688 L0.07809375,10.3593437 C0.07809375,10.6683281 0.19096875,10.9356406 0.41671875,11.1613906 C0.64246875,11.3871406 0.90978125,11.5000156 1.21876563,11.5000156 L5.78123438,11.5000156 C6.09010938,11.5000156 6.35753125,11.3870312 6.58317187,11.1613906 C6.80892187,10.9356406 6.92179688,10.6683281 6.92179688,10.3593437 L6.92179688,1.23429688 C6.92179688,0.925421875 6.80903125,0.658109375 6.58317187,0.432359375 L6.58317187,0.432359375 Z M2.78709375,1.23429687 L4.21290625,1.23429687 C4.30795312,1.23429687 4.35542187,1.281875 4.35542187,1.37692187 C4.35542187,1.47196875 4.30795312,1.51954687 4.21290625,1.51954687 L2.78709375,1.51954687 C2.69204687,1.51954687 2.64446875,1.47196875 2.64446875,1.37692187 C2.64446875,1.281875 2.69204687,1.23429687 2.78709375,1.23429687 L2.78709375,1.23429687 Z M4.0035625,10.8629062 C3.86389063,11.0023594 3.69610938,11.07225 3.5,11.07225 C3.304,11.07225 3.13621875,11.0024687 2.99654688,10.8629062 C2.856875,10.7232344 2.78709375,10.5553437 2.78709375,10.3593437 C2.78709375,10.1633437 2.85698438,9.99545312 2.99654688,9.85589062 C3.13610938,9.71632812 3.304,9.64632812 3.5,9.64632812 C3.69610938,9.64632812 3.86389063,9.71632812 4.0035625,9.85589062 C4.14323438,9.99545312 4.21290625,10.1633437 4.21290625,10.3593437 C4.21290625,10.5554531 4.143125,10.7232344 4.0035625,10.8629062 L4.0035625,10.8629062 Z M6.06648438,8.93364062 C6.06648438,9.01085937 6.03826563,9.07779687 5.98171875,9.134125 C5.92517188,9.1905625 5.85845313,9.21867187 5.78134375,9.21867187 L1.21876563,9.21867187 C1.14154688,9.21867187 1.07471875,9.19045312 1.01828125,9.134125 C0.96184375,9.07779687 0.933625,9.01085937 0.933625,8.93364062 L0.933625,2.66021875 C0.933625,2.583 0.96184375,2.51617187 1.01828125,2.45973437 C1.07471875,2.40340625 1.14154688,2.37507812 1.21876563,2.37507812 L5.78123438,2.37507812 C5.8585625,2.37507812 5.92528125,2.40329687 5.98182813,2.45973437 C6.03826563,2.51617187 6.066375,2.583 6.066375,2.66021875 L6.066375,8.93364062 L6.06648438,8.93364062 Z"></path>
            </g>
        </g>
    </g>
</svg>