<svg width="12px" height="12px" viewBox="0 0 12 12" version="1.1" xmlns="http://www.w3.org/2000/svg" xmlns:xlink="http://www.w3.org/1999/xlink">
    <g stroke="none" stroke-width="1" fill="none" fill-rule="evenodd">
        <g transform="translate(-30.000000, -3054.000000)" fill="#000000">
            <g transform="translate(30.000000, 3054.000000)">
                <path d="M11.3385714,7.16390476 C11.4212381,6.76561905 11.4626667,6.37761905 11.4626667,6 C11.4626667,5.26028571 11.3192381,4.55285714 11.0320952,3.87780952 C10.7450476,3.2027619 10.3570476,2.62085714 9.86819048,2.132 C9.37933333,1.64314286 8.79742857,1.25514286 8.12238095,0.968 C7.4472381,0.681047619 6.74,0.537428571 6.00019048,0.537428571 C5.62257143,0.537428571 5.23457143,0.578857143 4.83628571,0.661619048 C4.29828571,0.247809524 3.69304762,0.0408571429 3.02057143,0.0408571429 C2.19809524,0.0408571429 1.49590476,0.331809524 0.913904762,0.913714286 C0.331904762,1.49571429 0.040952381,2.19790476 0.040952381,3.02038095 C0.040952381,3.69285714 0.247904762,4.29809524 0.661714286,4.83609524 C0.578952381,5.23438095 0.53752381,5.62238095 0.53752381,6 C0.53752381,6.73961905 0.681047619,7.44704762 0.968095238,8.12219048 C1.25514286,8.7972381 1.64314286,9.37914286 2.132,9.868 C2.62085714,10.3568571 3.20285714,10.7447619 3.87790476,11.0319048 C4.55295238,11.3190476 5.26038095,11.4625714 6.00009524,11.4625714 C6.37771429,11.4625714 6.76571429,11.4210476 7.16419048,11.3382857 C7.702,11.7521905 8.3072381,11.9591429 8.97971429,11.9591429 C9.80219048,11.9591429 10.5044762,11.6680952 11.0861905,11.0861905 C11.6681905,10.5042857 11.9591429,9.80209524 11.9591429,8.97952381 C11.9590476,8.30714286 11.7521905,7.70190476 11.3385714,7.16390476 L11.3385714,7.16390476 Z M8.88638095,8.31619048 C8.71580952,8.61885714 8.48685714,8.86066667 8.19980952,9.04171429 C7.91266667,9.2227619 7.59590476,9.36104762 7.24933333,9.4567619 C6.9027619,9.55238095 6.54066667,9.60038095 6.16304762,9.60038095 C5.28885714,9.60038095 4.53628571,9.43095238 3.90514286,9.092 C3.274,8.75314286 2.95847619,8.34590476 2.95847619,7.86990476 C2.95847619,7.6372381 3.02447619,7.44333333 3.15638095,7.28809524 C3.28828571,7.13285714 3.48352381,7.05533333 3.74219048,7.05533333 C3.89219048,7.05533333 4.03180952,7.0967619 4.16114286,7.17952381 C4.29047619,7.26228571 4.40942857,7.362 4.51809524,7.47838095 C4.6267619,7.5947619 4.74438095,7.71114286 4.87114286,7.82752381 C4.99780952,7.944 5.16590476,8.04352381 5.37542857,8.12628571 C5.58495238,8.20904762 5.82161905,8.25047619 6.08552381,8.25047619 C6.42171429,8.25047619 6.6932381,8.18466667 6.90028571,8.0527619 C7.1072381,7.92066667 7.21066667,7.75390476 7.21066667,7.55219048 C7.21066667,7.3452381 7.12790476,7.19 6.96247619,7.08657143 C6.8487619,7.014 6.55904762,6.92095238 6.09342857,6.80714286 L4.96047619,6.52771429 C4.65009524,6.45533333 4.38371429,6.37133333 4.1612381,6.27571429 C3.9387619,6.17990476 3.73180952,6.05457143 3.54047619,5.89933333 C3.34914286,5.74419048 3.20428571,5.54895238 3.106,5.31352381 C3.00771429,5.07819048 2.95857143,4.80266667 2.95857143,4.48714286 C2.95857143,4.10952381 3.0452381,3.7772381 3.21847619,3.49009524 C3.39171429,3.20295238 3.622,2.97790476 3.90904762,2.81495238 C4.19609524,2.652 4.50514286,2.53047619 4.83628571,2.45028571 C5.16733333,2.37009524 5.5087619,2.33 5.86047619,2.33 C6.35714286,2.33 6.82771429,2.38952381 7.27266667,2.50847619 C7.71752381,2.62742857 8.0847619,2.802 8.37438095,3.03219048 C8.664,3.26247619 8.80885714,3.51980952 8.80885714,3.80428571 C8.80885714,4.03695238 8.7352381,4.23619048 8.58771429,4.40171429 C8.44047619,4.56714286 8.24514286,4.64990476 8.002,4.64990476 C7.86752381,4.64990476 7.74342857,4.61885714 7.62961905,4.5567619 C7.51580952,4.4947619 7.41238095,4.41971429 7.31914286,4.33180952 C7.226,4.24390476 7.12771429,4.1572381 7.02419048,4.07190476 C6.9207619,3.98657143 6.78114286,3.91285714 6.60542857,3.8507619 C6.42933333,3.78866667 6.23028571,3.75761905 6.00790476,3.75761905 C5.26304762,3.75761905 4.89057143,3.95666667 4.89057143,4.35504762 C4.89057143,4.44295238 4.91,4.52057143 4.9487619,4.58780952 C4.98752381,4.65504762 5.03028571,4.70933333 5.0767619,4.7507619 C5.1232381,4.79219048 5.20085714,4.83352381 5.30952381,4.87495238 C5.41819048,4.91638095 5.5087619,4.94619048 5.58114286,4.96419048 C5.65352381,4.98228571 5.76742857,5.00942857 5.92257143,5.04561905 L6.72952381,5.23180952 C6.98304762,5.2887619 7.2092381,5.34828571 7.40857143,5.41028571 C7.60771429,5.47247619 7.82104762,5.56038095 8.04866667,5.67419048 C8.27628571,5.788 8.46514286,5.91466667 8.61504762,6.05438095 C8.76514286,6.19409524 8.89047619,6.37114286 8.99142857,6.58580952 C9.09238095,6.80057143 9.1427619,7.0372381 9.1427619,7.29580952 C9.14257143,7.67342857 9.05733333,8.01361905 8.88638095,8.31619048 L8.88638095,8.31619048 Z"></path>
            </g>
        </g>
    </g>
</svg>